<svg width="200" height="97" viewBox="0 0 200 97" fill="none" xmlns="http://www.w3.org/2000/svg">
<g opacity="0.25">
<path d="M11.0429 6.43333C11.0429 9.98637 8.5709 12.8667 5.52147 12.8667C2.47205 12.8667 0 9.98637 0 6.43333C0 2.8803 2.47205 0 5.52147 0C8.5709 0 11.0429 2.8803 11.0429 6.43333Z" fill="#53556E"/>
<path d="M11.0429 26.4481C11.0429 30.0012 8.5709 32.8815 5.52147 32.8815C2.47205 32.8815 0 30.0012 0 26.4481C0 22.8951 2.47205 20.0148 5.52147 20.0148C8.5709 20.0148 11.0429 22.8951 11.0429 26.4481Z" fill="#53556E"/>
<path d="M11.0429 46.463C11.0429 50.016 8.5709 52.8963 5.52147 52.8963C2.47205 52.8963 0 50.016 0 46.463C0 42.9099 2.47205 40.0296 5.52147 40.0296C8.5709 40.0296 11.0429 42.9099 11.0429 46.463Z" fill="#53556E"/>
<path d="M11.0429 66.4778C11.0429 70.0308 8.5709 72.9111 5.52147 72.9111C2.47205 72.9111 0 70.0308 0 66.4778C0 62.9247 2.47205 60.0444 5.52147 60.0444C8.5709 60.0444 11.0429 62.9247 11.0429 66.4778Z" fill="#53556E"/>
<path d="M11.0429 86.4926C11.0429 90.0456 8.5709 92.9259 5.52147 92.9259C2.47205 92.9259 0 90.0456 0 86.4926C0 82.9396 2.47205 80.0593 5.52147 80.0593C8.5709 80.0593 11.0429 82.9396 11.0429 86.4926Z" fill="#53556E"/>
<path d="M11.0429 106.507C11.0429 110.06 8.5709 112.941 5.52147 112.941C2.47205 112.941 0 110.06 0 106.507C0 102.954 2.47205 100.074 5.52147 100.074C8.5709 100.074 11.0429 102.954 11.0429 106.507Z" fill="#53556E"/>
<path d="M11.0429 126.522C11.0429 130.075 8.5709 132.956 5.52147 132.956C2.47205 132.956 0 130.075 0 126.522C0 122.969 2.47205 120.089 5.52147 120.089C8.5709 120.089 11.0429 122.969 11.0429 126.522Z" fill="#53556E"/>
<path d="M11.0429 146.537C11.0429 150.09 8.5709 152.97 5.52147 152.97C2.47205 152.97 0 150.09 0 146.537C0 142.984 2.47205 140.104 5.52147 140.104C8.5709 140.104 11.0429 142.984 11.0429 146.537Z" fill="#53556E"/>
<path d="M11.0429 166.552C11.0429 170.105 8.5709 172.985 5.52147 172.985C2.47205 172.985 0 170.105 0 166.552C0 162.999 2.47205 160.119 5.52147 160.119C8.5709 160.119 11.0429 162.999 11.0429 166.552Z" fill="#53556E"/>
<path d="M11.0429 186.567C11.0429 190.12 8.5709 193 5.52147 193C2.47205 193 0 190.12 0 186.567C0 183.014 2.47205 180.133 5.52147 180.133C8.5709 180.133 11.0429 183.014 11.0429 186.567Z" fill="#53556E"/>
<path d="M28.2209 6.43333C28.2209 9.98637 25.7488 12.8667 22.6994 12.8667C19.65 12.8667 17.1779 9.98637 17.1779 6.43333C17.1779 2.8803 19.65 0 22.6994 0C25.7488 0 28.2209 2.8803 28.2209 6.43333Z" fill="#53556E"/>
<path d="M28.2209 26.4481C28.2209 30.0012 25.7488 32.8815 22.6994 32.8815C19.65 32.8815 17.1779 30.0012 17.1779 26.4481C17.1779 22.8951 19.65 20.0148 22.6994 20.0148C25.7488 20.0148 28.2209 22.8951 28.2209 26.4481Z" fill="#53556E"/>
<path d="M28.2209 46.463C28.2209 50.016 25.7488 52.8963 22.6994 52.8963C19.65 52.8963 17.1779 50.016 17.1779 46.463C17.1779 42.9099 19.65 40.0296 22.6994 40.0296C25.7488 40.0296 28.2209 42.9099 28.2209 46.463Z" fill="#53556E"/>
<path d="M28.2209 66.4778C28.2209 70.0308 25.7488 72.9111 22.6994 72.9111C19.65 72.9111 17.1779 70.0308 17.1779 66.4778C17.1779 62.9247 19.65 60.0444 22.6994 60.0444C25.7488 60.0444 28.2209 62.9247 28.2209 66.4778Z" fill="#53556E"/>
<path d="M28.2209 86.4926C28.2209 90.0456 25.7488 92.9259 22.6994 92.9259C19.65 92.9259 17.1779 90.0456 17.1779 86.4926C17.1779 82.9396 19.65 80.0593 22.6994 80.0593C25.7488 80.0593 28.2209 82.9396 28.2209 86.4926Z" fill="#53556E"/>
<path d="M28.2209 106.507C28.2209 110.06 25.7488 112.941 22.6994 112.941C19.65 112.941 17.1779 110.06 17.1779 106.507C17.1779 102.954 19.65 100.074 22.6994 100.074C25.7488 100.074 28.2209 102.954 28.2209 106.507Z" fill="#53556E"/>
<path d="M28.2209 126.522C28.2209 130.075 25.7488 132.956 22.6994 132.956C19.65 132.956 17.1779 130.075 17.1779 126.522C17.1779 122.969 19.65 120.089 22.6994 120.089C25.7488 120.089 28.2209 122.969 28.2209 126.522Z" fill="#53556E"/>
<path d="M28.2209 146.537C28.2209 150.09 25.7488 152.97 22.6994 152.97C19.65 152.97 17.1779 150.09 17.1779 146.537C17.1779 142.984 19.65 140.104 22.6994 140.104C25.7488 140.104 28.2209 142.984 28.2209 146.537Z" fill="#53556E"/>
<path d="M28.2209 166.552C28.2209 170.105 25.7488 172.985 22.6994 172.985C19.65 172.985 17.1779 170.105 17.1779 166.552C17.1779 162.999 19.65 160.119 22.6994 160.119C25.7488 160.119 28.2209 162.999 28.2209 166.552Z" fill="#53556E"/>
<path d="M28.2209 186.567C28.2209 190.12 25.7488 193 22.6994 193C19.65 193 17.1779 190.12 17.1779 186.567C17.1779 183.014 19.65 180.133 22.6994 180.133C25.7488 180.133 28.2209 183.014 28.2209 186.567Z" fill="#53556E"/>
<path d="M45.3988 6.43333C45.3988 9.98637 42.9267 12.8667 39.8773 12.8667C36.8279 12.8667 34.3558 9.98637 34.3558 6.43333C34.3558 2.8803 36.8279 0 39.8773 0C42.9267 0 45.3988 2.8803 45.3988 6.43333Z" fill="#53556E"/>
<path d="M45.3988 26.4481C45.3988 30.0012 42.9267 32.8815 39.8773 32.8815C36.8279 32.8815 34.3558 30.0012 34.3558 26.4481C34.3558 22.8951 36.8279 20.0148 39.8773 20.0148C42.9267 20.0148 45.3988 22.8951 45.3988 26.4481Z" fill="#53556E"/>
<path d="M45.3988 46.463C45.3988 50.016 42.9267 52.8963 39.8773 52.8963C36.8279 52.8963 34.3558 50.016 34.3558 46.463C34.3558 42.9099 36.8279 40.0296 39.8773 40.0296C42.9267 40.0296 45.3988 42.9099 45.3988 46.463Z" fill="#53556E"/>
<path d="M45.3988 66.4778C45.3988 70.0308 42.9267 72.9111 39.8773 72.9111C36.8279 72.9111 34.3558 70.0308 34.3558 66.4778C34.3558 62.9247 36.8279 60.0444 39.8773 60.0444C42.9267 60.0444 45.3988 62.9247 45.3988 66.4778Z" fill="#53556E"/>
<path d="M45.3988 86.4926C45.3988 90.0456 42.9267 92.9259 39.8773 92.9259C36.8279 92.9259 34.3558 90.0456 34.3558 86.4926C34.3558 82.9396 36.8279 80.0593 39.8773 80.0593C42.9267 80.0593 45.3988 82.9396 45.3988 86.4926Z" fill="#53556E"/>
<path d="M45.3988 106.507C45.3988 110.06 42.9267 112.941 39.8773 112.941C36.8279 112.941 34.3558 110.06 34.3558 106.507C34.3558 102.954 36.8279 100.074 39.8773 100.074C42.9267 100.074 45.3988 102.954 45.3988 106.507Z" fill="#53556E"/>
<path d="M45.3988 126.522C45.3988 130.075 42.9267 132.956 39.8773 132.956C36.8279 132.956 34.3558 130.075 34.3558 126.522C34.3558 122.969 36.8279 120.089 39.8773 120.089C42.9267 120.089 45.3988 122.969 45.3988 126.522Z" fill="#53556E"/>
<path d="M45.3988 146.537C45.3988 150.09 42.9267 152.97 39.8773 152.97C36.8279 152.97 34.3558 150.09 34.3558 146.537C34.3558 142.984 36.8279 140.104 39.8773 140.104C42.9267 140.104 45.3988 142.984 45.3988 146.537Z" fill="#53556E"/>
<path d="M45.3988 166.552C45.3988 170.105 42.9267 172.985 39.8773 172.985C36.8279 172.985 34.3558 170.105 34.3558 166.552C34.3558 162.999 36.8279 160.119 39.8773 160.119C42.9267 160.119 45.3988 162.999 45.3988 166.552Z" fill="#53556E"/>
<path d="M45.3988 186.567C45.3988 190.12 42.9267 193 39.8773 193C36.8279 193 34.3558 190.12 34.3558 186.567C34.3558 183.014 36.8279 180.133 39.8773 180.133C42.9267 180.133 45.3988 183.014 45.3988 186.567Z" fill="#53556E"/>
<path d="M62.5767 6.43333C62.5767 9.98637 60.1046 12.8667 57.0552 12.8667C54.0058 12.8667 51.5337 9.98637 51.5337 6.43333C51.5337 2.8803 54.0058 0 57.0552 0C60.1046 0 62.5767 2.8803 62.5767 6.43333Z" fill="#53556E"/>
<path d="M62.5767 26.4481C62.5767 30.0012 60.1046 32.8815 57.0552 32.8815C54.0058 32.8815 51.5337 30.0012 51.5337 26.4481C51.5337 22.8951 54.0058 20.0148 57.0552 20.0148C60.1046 20.0148 62.5767 22.8951 62.5767 26.4481Z" fill="#53556E"/>
<path d="M62.5767 46.463C62.5767 50.016 60.1046 52.8963 57.0552 52.8963C54.0058 52.8963 51.5337 50.016 51.5337 46.463C51.5337 42.9099 54.0058 40.0296 57.0552 40.0296C60.1046 40.0296 62.5767 42.9099 62.5767 46.463Z" fill="#53556E"/>
<path d="M62.5767 66.4778C62.5767 70.0308 60.1046 72.9111 57.0552 72.9111C54.0058 72.9111 51.5337 70.0308 51.5337 66.4778C51.5337 62.9247 54.0058 60.0444 57.0552 60.0444C60.1046 60.0444 62.5767 62.9247 62.5767 66.4778Z" fill="#53556E"/>
<path d="M62.5767 86.4926C62.5767 90.0456 60.1046 92.9259 57.0552 92.9259C54.0058 92.9259 51.5337 90.0456 51.5337 86.4926C51.5337 82.9396 54.0058 80.0593 57.0552 80.0593C60.1046 80.0593 62.5767 82.9396 62.5767 86.4926Z" fill="#53556E"/>
<path d="M62.5767 106.507C62.5767 110.06 60.1046 112.941 57.0552 112.941C54.0058 112.941 51.5337 110.06 51.5337 106.507C51.5337 102.954 54.0058 100.074 57.0552 100.074C60.1046 100.074 62.5767 102.954 62.5767 106.507Z" fill="#53556E"/>
<path d="M62.5767 126.522C62.5767 130.075 60.1046 132.956 57.0552 132.956C54.0058 132.956 51.5337 130.075 51.5337 126.522C51.5337 122.969 54.0058 120.089 57.0552 120.089C60.1046 120.089 62.5767 122.969 62.5767 126.522Z" fill="#53556E"/>
<path d="M62.5767 146.537C62.5767 150.09 60.1046 152.97 57.0552 152.97C54.0058 152.97 51.5337 150.09 51.5337 146.537C51.5337 142.984 54.0058 140.104 57.0552 140.104C60.1046 140.104 62.5767 142.984 62.5767 146.537Z" fill="#53556E"/>
<path d="M62.5767 166.552C62.5767 170.105 60.1046 172.985 57.0552 172.985C54.0058 172.985 51.5337 170.105 51.5337 166.552C51.5337 162.999 54.0058 160.119 57.0552 160.119C60.1046 160.119 62.5767 162.999 62.5767 166.552Z" fill="#53556E"/>
<path d="M62.5767 186.567C62.5767 190.12 60.1046 193 57.0552 193C54.0058 193 51.5337 190.12 51.5337 186.567C51.5337 183.014 54.0058 180.133 57.0552 180.133C60.1046 180.133 62.5767 183.014 62.5767 186.567Z" fill="#53556E"/>
<path d="M79.7546 6.43333C79.7546 9.98637 77.2826 12.8667 74.2331 12.8667C71.1837 12.8667 68.7117 9.98637 68.7117 6.43333C68.7117 2.8803 71.1837 0 74.2331 0C77.2826 0 79.7546 2.8803 79.7546 6.43333Z" fill="#53556E"/>
<path d="M79.7546 26.4481C79.7546 30.0012 77.2826 32.8815 74.2331 32.8815C71.1837 32.8815 68.7117 30.0012 68.7117 26.4481C68.7117 22.8951 71.1837 20.0148 74.2331 20.0148C77.2826 20.0148 79.7546 22.8951 79.7546 26.4481Z" fill="#53556E"/>
<path d="M79.7546 46.463C79.7546 50.016 77.2826 52.8963 74.2331 52.8963C71.1837 52.8963 68.7117 50.016 68.7117 46.463C68.7117 42.9099 71.1837 40.0296 74.2331 40.0296C77.2826 40.0296 79.7546 42.9099 79.7546 46.463Z" fill="#53556E"/>
<path d="M79.7546 66.4778C79.7546 70.0308 77.2826 72.9111 74.2331 72.9111C71.1837 72.9111 68.7117 70.0308 68.7117 66.4778C68.7117 62.9247 71.1837 60.0444 74.2331 60.0444C77.2826 60.0444 79.7546 62.9247 79.7546 66.4778Z" fill="#53556E"/>
<path d="M79.7546 86.4926C79.7546 90.0456 77.2826 92.9259 74.2331 92.9259C71.1837 92.9259 68.7117 90.0456 68.7117 86.4926C68.7117 82.9396 71.1837 80.0593 74.2331 80.0593C77.2826 80.0593 79.7546 82.9396 79.7546 86.4926Z" fill="#53556E"/>
<path d="M79.7546 106.507C79.7546 110.06 77.2826 112.941 74.2331 112.941C71.1837 112.941 68.7117 110.06 68.7117 106.507C68.7117 102.954 71.1837 100.074 74.2331 100.074C77.2826 100.074 79.7546 102.954 79.7546 106.507Z" fill="#53556E"/>
<path d="M79.7546 126.522C79.7546 130.075 77.2826 132.956 74.2331 132.956C71.1837 132.956 68.7117 130.075 68.7117 126.522C68.7117 122.969 71.1837 120.089 74.2331 120.089C77.2826 120.089 79.7546 122.969 79.7546 126.522Z" fill="#53556E"/>
<path d="M79.7546 146.537C79.7546 150.09 77.2826 152.97 74.2331 152.97C71.1837 152.97 68.7117 150.09 68.7117 146.537C68.7117 142.984 71.1837 140.104 74.2331 140.104C77.2826 140.104 79.7546 142.984 79.7546 146.537Z" fill="#53556E"/>
<path d="M79.7546 166.552C79.7546 170.105 77.2826 172.985 74.2331 172.985C71.1837 172.985 68.7117 170.105 68.7117 166.552C68.7117 162.999 71.1837 160.119 74.2331 160.119C77.2826 160.119 79.7546 162.999 79.7546 166.552Z" fill="#53556E"/>
<path d="M79.7546 186.567C79.7546 190.12 77.2826 193 74.2331 193C71.1837 193 68.7117 190.12 68.7117 186.567C68.7117 183.014 71.1837 180.133 74.2331 180.133C77.2826 180.133 79.7546 183.014 79.7546 186.567Z" fill="#53556E"/>
<path d="M96.9325 6.43333C96.9325 9.98637 94.4605 12.8667 91.411 12.8667C88.3616 12.8667 85.8896 9.98637 85.8896 6.43333C85.8896 2.8803 88.3616 0 91.411 0C94.4605 0 96.9325 2.8803 96.9325 6.43333Z" fill="#53556E"/>
<path d="M96.9325 26.4481C96.9325 30.0012 94.4605 32.8815 91.411 32.8815C88.3616 32.8815 85.8896 30.0012 85.8896 26.4481C85.8896 22.8951 88.3616 20.0148 91.411 20.0148C94.4605 20.0148 96.9325 22.8951 96.9325 26.4481Z" fill="#53556E"/>
<path d="M96.9325 46.463C96.9325 50.016 94.4605 52.8963 91.411 52.8963C88.3616 52.8963 85.8896 50.016 85.8896 46.463C85.8896 42.9099 88.3616 40.0296 91.411 40.0296C94.4605 40.0296 96.9325 42.9099 96.9325 46.463Z" fill="#53556E"/>
<path d="M96.9325 66.4778C96.9325 70.0308 94.4605 72.9111 91.411 72.9111C88.3616 72.9111 85.8896 70.0308 85.8896 66.4778C85.8896 62.9247 88.3616 60.0444 91.411 60.0444C94.4605 60.0444 96.9325 62.9247 96.9325 66.4778Z" fill="#53556E"/>
<path d="M96.9325 86.4926C96.9325 90.0456 94.4605 92.9259 91.411 92.9259C88.3616 92.9259 85.8896 90.0456 85.8896 86.4926C85.8896 82.9396 88.3616 80.0593 91.411 80.0593C94.4605 80.0593 96.9325 82.9396 96.9325 86.4926Z" fill="#53556E"/>
<path d="M96.9325 106.507C96.9325 110.06 94.4605 112.941 91.411 112.941C88.3616 112.941 85.8896 110.06 85.8896 106.507C85.8896 102.954 88.3616 100.074 91.411 100.074C94.4605 100.074 96.9325 102.954 96.9325 106.507Z" fill="#53556E"/>
<path d="M96.9325 126.522C96.9325 130.075 94.4605 132.956 91.411 132.956C88.3616 132.956 85.8896 130.075 85.8896 126.522C85.8896 122.969 88.3616 120.089 91.411 120.089C94.4605 120.089 96.9325 122.969 96.9325 126.522Z" fill="#53556E"/>
<path d="M96.9325 146.537C96.9325 150.09 94.4605 152.97 91.411 152.97C88.3616 152.97 85.8896 150.09 85.8896 146.537C85.8896 142.984 88.3616 140.104 91.411 140.104C94.4605 140.104 96.9325 142.984 96.9325 146.537Z" fill="#53556E"/>
<path d="M96.9325 166.552C96.9325 170.105 94.4605 172.985 91.411 172.985C88.3616 172.985 85.8896 170.105 85.8896 166.552C85.8896 162.999 88.3616 160.119 91.411 160.119C94.4605 160.119 96.9325 162.999 96.9325 166.552Z" fill="#53556E"/>
<path d="M96.9325 186.567C96.9325 190.12 94.4605 193 91.411 193C88.3616 193 85.8896 190.12 85.8896 186.567C85.8896 183.014 88.3616 180.133 91.411 180.133C94.4605 180.133 96.9325 183.014 96.9325 186.567Z" fill="#53556E"/>
<path d="M114.11 6.43333C114.11 9.98637 111.638 12.8667 108.589 12.8667C105.54 12.8667 103.067 9.98637 103.067 6.43333C103.067 2.8803 105.54 0 108.589 0C111.638 0 114.11 2.8803 114.11 6.43333Z" fill="#53556E"/>
<path d="M114.11 26.4481C114.11 30.0012 111.638 32.8815 108.589 32.8815C105.54 32.8815 103.067 30.0012 103.067 26.4481C103.067 22.8951 105.54 20.0148 108.589 20.0148C111.638 20.0148 114.11 22.8951 114.11 26.4481Z" fill="#53556E"/>
<path d="M114.11 46.463C114.11 50.016 111.638 52.8963 108.589 52.8963C105.54 52.8963 103.067 50.016 103.067 46.463C103.067 42.9099 105.54 40.0296 108.589 40.0296C111.638 40.0296 114.11 42.9099 114.11 46.463Z" fill="#53556E"/>
<path d="M114.11 66.4778C114.11 70.0308 111.638 72.9111 108.589 72.9111C105.54 72.9111 103.067 70.0308 103.067 66.4778C103.067 62.9247 105.54 60.0444 108.589 60.0444C111.638 60.0444 114.11 62.9247 114.11 66.4778Z" fill="#53556E"/>
<path d="M114.11 86.4926C114.11 90.0456 111.638 92.9259 108.589 92.9259C105.54 92.9259 103.067 90.0456 103.067 86.4926C103.067 82.9396 105.54 80.0593 108.589 80.0593C111.638 80.0593 114.11 82.9396 114.11 86.4926Z" fill="#53556E"/>
<path d="M114.11 106.507C114.11 110.06 111.638 112.941 108.589 112.941C105.54 112.941 103.067 110.06 103.067 106.507C103.067 102.954 105.54 100.074 108.589 100.074C111.638 100.074 114.11 102.954 114.11 106.507Z" fill="#53556E"/>
<path d="M114.11 126.522C114.11 130.075 111.638 132.956 108.589 132.956C105.54 132.956 103.067 130.075 103.067 126.522C103.067 122.969 105.54 120.089 108.589 120.089C111.638 120.089 114.11 122.969 114.11 126.522Z" fill="#53556E"/>
<path d="M114.11 146.537C114.11 150.09 111.638 152.97 108.589 152.97C105.54 152.97 103.067 150.09 103.067 146.537C103.067 142.984 105.54 140.104 108.589 140.104C111.638 140.104 114.11 142.984 114.11 146.537Z" fill="#53556E"/>
<path d="M114.11 166.552C114.11 170.105 111.638 172.985 108.589 172.985C105.54 172.985 103.067 170.105 103.067 166.552C103.067 162.999 105.54 160.119 108.589 160.119C111.638 160.119 114.11 162.999 114.11 166.552Z" fill="#53556E"/>
<path d="M114.11 186.567C114.11 190.12 111.638 193 108.589 193C105.54 193 103.067 190.12 103.067 186.567C103.067 183.014 105.54 180.133 108.589 180.133C111.638 180.133 114.11 183.014 114.11 186.567Z" fill="#53556E"/>
<path d="M131.288 6.43333C131.288 9.98637 128.816 12.8667 125.767 12.8667C122.717 12.8667 120.245 9.98637 120.245 6.43333C120.245 2.8803 122.717 0 125.767 0C128.816 0 131.288 2.8803 131.288 6.43333Z" fill="#53556E"/>
<path d="M131.288 26.4481C131.288 30.0012 128.816 32.8815 125.767 32.8815C122.717 32.8815 120.245 30.0012 120.245 26.4481C120.245 22.8951 122.717 20.0148 125.767 20.0148C128.816 20.0148 131.288 22.8951 131.288 26.4481Z" fill="#53556E"/>
<path d="M131.288 46.463C131.288 50.016 128.816 52.8963 125.767 52.8963C122.717 52.8963 120.245 50.016 120.245 46.463C120.245 42.9099 122.717 40.0296 125.767 40.0296C128.816 40.0296 131.288 42.9099 131.288 46.463Z" fill="#53556E"/>
<path d="M131.288 66.4778C131.288 70.0308 128.816 72.9111 125.767 72.9111C122.717 72.9111 120.245 70.0308 120.245 66.4778C120.245 62.9247 122.717 60.0444 125.767 60.0444C128.816 60.0444 131.288 62.9247 131.288 66.4778Z" fill="#53556E"/>
<path d="M131.288 86.4926C131.288 90.0456 128.816 92.9259 125.767 92.9259C122.717 92.9259 120.245 90.0456 120.245 86.4926C120.245 82.9396 122.717 80.0593 125.767 80.0593C128.816 80.0593 131.288 82.9396 131.288 86.4926Z" fill="#53556E"/>
<path d="M131.288 106.507C131.288 110.06 128.816 112.941 125.767 112.941C122.717 112.941 120.245 110.06 120.245 106.507C120.245 102.954 122.717 100.074 125.767 100.074C128.816 100.074 131.288 102.954 131.288 106.507Z" fill="#53556E"/>
<path d="M131.288 126.522C131.288 130.075 128.816 132.956 125.767 132.956C122.717 132.956 120.245 130.075 120.245 126.522C120.245 122.969 122.717 120.089 125.767 120.089C128.816 120.089 131.288 122.969 131.288 126.522Z" fill="#53556E"/>
<path d="M131.288 146.537C131.288 150.09 128.816 152.97 125.767 152.97C122.717 152.97 120.245 150.09 120.245 146.537C120.245 142.984 122.717 140.104 125.767 140.104C128.816 140.104 131.288 142.984 131.288 146.537Z" fill="#53556E"/>
<path d="M131.288 166.552C131.288 170.105 128.816 172.985 125.767 172.985C122.717 172.985 120.245 170.105 120.245 166.552C120.245 162.999 122.717 160.119 125.767 160.119C128.816 160.119 131.288 162.999 131.288 166.552Z" fill="#53556E"/>
<path d="M131.288 186.567C131.288 190.12 128.816 193 125.767 193C122.717 193 120.245 190.12 120.245 186.567C120.245 183.014 122.717 180.133 125.767 180.133C128.816 180.133 131.288 183.014 131.288 186.567Z" fill="#53556E"/>
<path d="M148.466 6.43333C148.466 9.98637 145.994 12.8667 142.945 12.8667C139.895 12.8667 137.423 9.98637 137.423 6.43333C137.423 2.8803 139.895 0 142.945 0C145.994 0 148.466 2.8803 148.466 6.43333Z" fill="#53556E"/>
<path d="M148.466 26.4481C148.466 30.0012 145.994 32.8815 142.945 32.8815C139.895 32.8815 137.423 30.0012 137.423 26.4481C137.423 22.8951 139.895 20.0148 142.945 20.0148C145.994 20.0148 148.466 22.8951 148.466 26.4481Z" fill="#53556E"/>
<path d="M148.466 46.463C148.466 50.016 145.994 52.8963 142.945 52.8963C139.895 52.8963 137.423 50.016 137.423 46.463C137.423 42.9099 139.895 40.0296 142.945 40.0296C145.994 40.0296 148.466 42.9099 148.466 46.463Z" fill="#53556E"/>
<path d="M148.466 66.4778C148.466 70.0308 145.994 72.9111 142.945 72.9111C139.895 72.9111 137.423 70.0308 137.423 66.4778C137.423 62.9247 139.895 60.0444 142.945 60.0444C145.994 60.0444 148.466 62.9247 148.466 66.4778Z" fill="#53556E"/>
<path d="M148.466 86.4926C148.466 90.0456 145.994 92.9259 142.945 92.9259C139.895 92.9259 137.423 90.0456 137.423 86.4926C137.423 82.9396 139.895 80.0593 142.945 80.0593C145.994 80.0593 148.466 82.9396 148.466 86.4926Z" fill="#53556E"/>
<path d="M148.466 106.507C148.466 110.06 145.994 112.941 142.945 112.941C139.895 112.941 137.423 110.06 137.423 106.507C137.423 102.954 139.895 100.074 142.945 100.074C145.994 100.074 148.466 102.954 148.466 106.507Z" fill="#53556E"/>
<path d="M148.466 126.522C148.466 130.075 145.994 132.956 142.945 132.956C139.895 132.956 137.423 130.075 137.423 126.522C137.423 122.969 139.895 120.089 142.945 120.089C145.994 120.089 148.466 122.969 148.466 126.522Z" fill="#53556E"/>
<path d="M148.466 146.537C148.466 150.09 145.994 152.97 142.945 152.97C139.895 152.97 137.423 150.09 137.423 146.537C137.423 142.984 139.895 140.104 142.945 140.104C145.994 140.104 148.466 142.984 148.466 146.537Z" fill="#53556E"/>
<path d="M148.466 166.552C148.466 170.105 145.994 172.985 142.945 172.985C139.895 172.985 137.423 170.105 137.423 166.552C137.423 162.999 139.895 160.119 142.945 160.119C145.994 160.119 148.466 162.999 148.466 166.552Z" fill="#53556E"/>
<path d="M148.466 186.567C148.466 190.12 145.994 193 142.945 193C139.895 193 137.423 190.12 137.423 186.567C137.423 183.014 139.895 180.133 142.945 180.133C145.994 180.133 148.466 183.014 148.466 186.567Z" fill="#53556E"/>
<path d="M165.644 6.43333C165.644 9.98637 163.172 12.8667 160.123 12.8667C157.073 12.8667 154.601 9.98637 154.601 6.43333C154.601 2.8803 157.073 0 160.123 0C163.172 0 165.644 2.8803 165.644 6.43333Z" fill="#53556E"/>
<path d="M165.644 26.4481C165.644 30.0012 163.172 32.8815 160.123 32.8815C157.073 32.8815 154.601 30.0012 154.601 26.4481C154.601 22.8951 157.073 20.0148 160.123 20.0148C163.172 20.0148 165.644 22.8951 165.644 26.4481Z" fill="#53556E"/>
<path d="M165.644 46.463C165.644 50.016 163.172 52.8963 160.123 52.8963C157.073 52.8963 154.601 50.016 154.601 46.463C154.601 42.9099 157.073 40.0296 160.123 40.0296C163.172 40.0296 165.644 42.9099 165.644 46.463Z" fill="#53556E"/>
<path d="M165.644 66.4778C165.644 70.0308 163.172 72.9111 160.123 72.9111C157.073 72.9111 154.601 70.0308 154.601 66.4778C154.601 62.9247 157.073 60.0444 160.123 60.0444C163.172 60.0444 165.644 62.9247 165.644 66.4778Z" fill="#53556E"/>
<path d="M165.644 86.4926C165.644 90.0456 163.172 92.9259 160.123 92.9259C157.073 92.9259 154.601 90.0456 154.601 86.4926C154.601 82.9396 157.073 80.0593 160.123 80.0593C163.172 80.0593 165.644 82.9396 165.644 86.4926Z" fill="#53556E"/>
<path d="M165.644 106.507C165.644 110.06 163.172 112.941 160.123 112.941C157.073 112.941 154.601 110.06 154.601 106.507C154.601 102.954 157.073 100.074 160.123 100.074C163.172 100.074 165.644 102.954 165.644 106.507Z" fill="#53556E"/>
<path d="M165.644 126.522C165.644 130.075 163.172 132.956 160.123 132.956C157.073 132.956 154.601 130.075 154.601 126.522C154.601 122.969 157.073 120.089 160.123 120.089C163.172 120.089 165.644 122.969 165.644 126.522Z" fill="#53556E"/>
<path d="M165.644 146.537C165.644 150.09 163.172 152.97 160.123 152.97C157.073 152.97 154.601 150.09 154.601 146.537C154.601 142.984 157.073 140.104 160.123 140.104C163.172 140.104 165.644 142.984 165.644 146.537Z" fill="#53556E"/>
<path d="M165.644 166.552C165.644 170.105 163.172 172.985 160.123 172.985C157.073 172.985 154.601 170.105 154.601 166.552C154.601 162.999 157.073 160.119 160.123 160.119C163.172 160.119 165.644 162.999 165.644 166.552Z" fill="#53556E"/>
<path d="M165.644 186.567C165.644 190.12 163.172 193 160.123 193C157.073 193 154.601 190.12 154.601 186.567C154.601 183.014 157.073 180.133 160.123 180.133C163.172 180.133 165.644 183.014 165.644 186.567Z" fill="#53556E"/>
<path d="M182.822 6.43333C182.822 9.98637 180.35 12.8667 177.301 12.8667C174.251 12.8667 171.779 9.98637 171.779 6.43333C171.779 2.8803 174.251 0 177.301 0C180.35 0 182.822 2.8803 182.822 6.43333Z" fill="#53556E"/>
<path d="M182.822 26.4481C182.822 30.0012 180.35 32.8815 177.301 32.8815C174.251 32.8815 171.779 30.0012 171.779 26.4481C171.779 22.8951 174.251 20.0148 177.301 20.0148C180.35 20.0148 182.822 22.8951 182.822 26.4481Z" fill="#53556E"/>
<path d="M182.822 46.463C182.822 50.016 180.35 52.8963 177.301 52.8963C174.251 52.8963 171.779 50.016 171.779 46.463C171.779 42.9099 174.251 40.0296 177.301 40.0296C180.35 40.0296 182.822 42.9099 182.822 46.463Z" fill="#53556E"/>
<path d="M182.822 66.4778C182.822 70.0308 180.35 72.9111 177.301 72.9111C174.251 72.9111 171.779 70.0308 171.779 66.4778C171.779 62.9247 174.251 60.0444 177.301 60.0444C180.35 60.0444 182.822 62.9247 182.822 66.4778Z" fill="#53556E"/>
<path d="M182.822 86.4926C182.822 90.0456 180.35 92.9259 177.301 92.9259C174.251 92.9259 171.779 90.0456 171.779 86.4926C171.779 82.9396 174.251 80.0593 177.301 80.0593C180.35 80.0593 182.822 82.9396 182.822 86.4926Z" fill="#53556E"/>
<path d="M182.822 106.507C182.822 110.06 180.35 112.941 177.301 112.941C174.251 112.941 171.779 110.06 171.779 106.507C171.779 102.954 174.251 100.074 177.301 100.074C180.35 100.074 182.822 102.954 182.822 106.507Z" fill="#53556E"/>
<path d="M182.822 126.522C182.822 130.075 180.35 132.956 177.301 132.956C174.251 132.956 171.779 130.075 171.779 126.522C171.779 122.969 174.251 120.089 177.301 120.089C180.35 120.089 182.822 122.969 182.822 126.522Z" fill="#53556E"/>
<path d="M182.822 146.537C182.822 150.09 180.35 152.97 177.301 152.97C174.251 152.97 171.779 150.09 171.779 146.537C171.779 142.984 174.251 140.104 177.301 140.104C180.35 140.104 182.822 142.984 182.822 146.537Z" fill="#53556E"/>
<path d="M182.822 166.552C182.822 170.105 180.35 172.985 177.301 172.985C174.251 172.985 171.779 170.105 171.779 166.552C171.779 162.999 174.251 160.119 177.301 160.119C180.35 160.119 182.822 162.999 182.822 166.552Z" fill="#53556E"/>
<path d="M182.822 186.567C182.822 190.12 180.35 193 177.301 193C174.251 193 171.779 190.12 171.779 186.567C171.779 183.014 174.251 180.133 177.301 180.133C180.35 180.133 182.822 183.014 182.822 186.567Z" fill="#53556E"/>
<path d="M200 6.43333C200 9.98637 197.528 12.8667 194.479 12.8667C191.429 12.8667 188.957 9.98637 188.957 6.43333C188.957 2.8803 191.429 0 194.479 0C197.528 0 200 2.8803 200 6.43333Z" fill="#53556E"/>
<path d="M200 26.4481C200 30.0012 197.528 32.8815 194.479 32.8815C191.429 32.8815 188.957 30.0012 188.957 26.4481C188.957 22.8951 191.429 20.0148 194.479 20.0148C197.528 20.0148 200 22.8951 200 26.4481Z" fill="#53556E"/>
<path d="M200 46.463C200 50.016 197.528 52.8963 194.479 52.8963C191.429 52.8963 188.957 50.016 188.957 46.463C188.957 42.9099 191.429 40.0296 194.479 40.0296C197.528 40.0296 200 42.9099 200 46.463Z" fill="#53556E"/>
<path d="M200 66.4778C200 70.0308 197.528 72.9111 194.479 72.9111C191.429 72.9111 188.957 70.0308 188.957 66.4778C188.957 62.9247 191.429 60.0444 194.479 60.0444C197.528 60.0444 200 62.9247 200 66.4778Z" fill="#53556E"/>
<path d="M200 86.4926C200 90.0456 197.528 92.9259 194.479 92.9259C191.429 92.9259 188.957 90.0456 188.957 86.4926C188.957 82.9396 191.429 80.0593 194.479 80.0593C197.528 80.0593 200 82.9396 200 86.4926Z" fill="#53556E"/>
<path d="M200 106.507C200 110.06 197.528 112.941 194.479 112.941C191.429 112.941 188.957 110.06 188.957 106.507C188.957 102.954 191.429 100.074 194.479 100.074C197.528 100.074 200 102.954 200 106.507Z" fill="#53556E"/>
<path d="M200 126.522C200 130.075 197.528 132.956 194.479 132.956C191.429 132.956 188.957 130.075 188.957 126.522C188.957 122.969 191.429 120.089 194.479 120.089C197.528 120.089 200 122.969 200 126.522Z" fill="#53556E"/>
<path d="M200 146.537C200 150.09 197.528 152.97 194.479 152.97C191.429 152.97 188.957 150.09 188.957 146.537C188.957 142.984 191.429 140.104 194.479 140.104C197.528 140.104 200 142.984 200 146.537Z" fill="#53556E"/>
<path d="M200 166.552C200 170.105 197.528 172.985 194.479 172.985C191.429 172.985 188.957 170.105 188.957 166.552C188.957 162.999 191.429 160.119 194.479 160.119C197.528 160.119 200 162.999 200 166.552Z" fill="#53556E"/>
<path d="M200 186.567C200 190.12 197.528 193 194.479 193C191.429 193 188.957 190.12 188.957 186.567C188.957 183.014 191.429 180.133 194.479 180.133C197.528 180.133 200 183.014 200 186.567Z" fill="#53556E"/>
</g>
</svg>
