<svg width="454" height="349" viewBox="0 0 454 349" fill="none" xmlns="http://www.w3.org/2000/svg">
<g opacity="0.25">
<path d="M25.0675 -82.1333C25.0675 -73.9227 19.4559 -67.2667 12.5337 -67.2667C5.61155 -67.2667 0 -73.9227 0 -82.1333C0 -90.344 5.61155 -97 12.5337 -97C19.4559 -97 25.0675 -90.344 25.0675 -82.1333Z" fill="#53556E"/>
<path d="M25.0675 -35.8815C25.0675 -27.6708 19.4559 -21.0148 12.5337 -21.0148C5.61155 -21.0148 0 -27.6708 0 -35.8815C0 -44.0921 5.61155 -50.7481 12.5337 -50.7481C19.4559 -50.7481 25.0675 -44.0921 25.0675 -35.8815Z" fill="#53556E"/>
<path d="M25.0675 10.3704C25.0675 18.581 19.4559 25.237 12.5337 25.237C5.61155 25.237 0 18.581 0 10.3704C0 2.15974 5.61155 -4.49629 12.5337 -4.49629C19.4559 -4.49629 25.0675 2.15974 25.0675 10.3704Z" fill="#53556E"/>
<path d="M25.0675 56.6222C25.0675 64.8329 19.4559 71.4889 12.5337 71.4889C5.61155 71.4889 0 64.8329 0 56.6222C0 48.4116 5.61155 41.7556 12.5337 41.7556C19.4559 41.7556 25.0675 48.4116 25.0675 56.6222Z" fill="#53556E"/>
<path d="M25.0675 102.874C25.0675 111.085 19.4559 117.741 12.5337 117.741C5.61155 117.741 0 111.085 0 102.874C0 94.6635 5.61155 88.0074 12.5337 88.0074C19.4559 88.0074 25.0675 94.6635 25.0675 102.874Z" fill="#53556E"/>
<path d="M25.0675 149.126C25.0675 157.337 19.4559 163.993 12.5337 163.993C5.61155 163.993 0 157.337 0 149.126C0 140.915 5.61155 134.259 12.5337 134.259C19.4559 134.259 25.0675 140.915 25.0675 149.126Z" fill="#53556E"/>
<path d="M25.0675 195.378C25.0675 203.588 19.4559 210.244 12.5337 210.244C5.61155 210.244 0 203.588 0 195.378C0 187.167 5.61155 180.511 12.5337 180.511C19.4559 180.511 25.0675 187.167 25.0675 195.378Z" fill="#53556E"/>
<path d="M25.0675 241.63C25.0675 249.84 19.4559 256.496 12.5337 256.496C5.61155 256.496 0 249.84 0 241.63C0 233.419 5.61155 226.763 12.5337 226.763C19.4559 226.763 25.0675 233.419 25.0675 241.63Z" fill="#53556E"/>
<path d="M25.0675 287.882C25.0675 296.092 19.4559 302.748 12.5337 302.748C5.61155 302.748 0 296.092 0 287.882C0 279.671 5.61155 273.015 12.5337 273.015C19.4559 273.015 25.0675 279.671 25.0675 287.882Z" fill="#53556E"/>
<path d="M25.0675 334.133C25.0675 342.344 19.4559 349 12.5337 349C5.61155 349 0 342.344 0 334.133C0 325.923 5.61155 319.267 12.5337 319.267C19.4559 319.267 25.0675 325.923 25.0675 334.133Z" fill="#53556E"/>
<path d="M64.0614 -82.1333C64.0614 -73.9227 58.4498 -67.2667 51.5276 -67.2667C44.6054 -67.2667 38.9939 -73.9227 38.9939 -82.1333C38.9939 -90.344 44.6054 -97 51.5276 -97C58.4498 -97 64.0614 -90.344 64.0614 -82.1333Z" fill="#53556E"/>
<path d="M64.0614 -35.8815C64.0614 -27.6708 58.4498 -21.0148 51.5276 -21.0148C44.6054 -21.0148 38.9939 -27.6708 38.9939 -35.8815C38.9939 -44.0921 44.6054 -50.7481 51.5276 -50.7481C58.4498 -50.7481 64.0614 -44.0921 64.0614 -35.8815Z" fill="#53556E"/>
<path d="M64.0614 10.3704C64.0614 18.581 58.4498 25.237 51.5276 25.237C44.6054 25.237 38.9939 18.581 38.9939 10.3704C38.9939 2.15974 44.6054 -4.49629 51.5276 -4.49629C58.4498 -4.49629 64.0614 2.15974 64.0614 10.3704Z" fill="#53556E"/>
<path d="M64.0614 56.6222C64.0614 64.8329 58.4498 71.4889 51.5276 71.4889C44.6054 71.4889 38.9939 64.8329 38.9939 56.6222C38.9939 48.4116 44.6054 41.7556 51.5276 41.7556C58.4498 41.7556 64.0614 48.4116 64.0614 56.6222Z" fill="#53556E"/>
<path d="M64.0614 102.874C64.0614 111.085 58.4498 117.741 51.5276 117.741C44.6054 117.741 38.9939 111.085 38.9939 102.874C38.9939 94.6635 44.6054 88.0074 51.5276 88.0074C58.4498 88.0074 64.0614 94.6635 64.0614 102.874Z" fill="#53556E"/>
<path d="M64.0614 149.126C64.0614 157.337 58.4498 163.993 51.5276 163.993C44.6054 163.993 38.9939 157.337 38.9939 149.126C38.9939 140.915 44.6054 134.259 51.5276 134.259C58.4498 134.259 64.0614 140.915 64.0614 149.126Z" fill="#53556E"/>
<path d="M64.0614 195.378C64.0614 203.588 58.4498 210.244 51.5276 210.244C44.6054 210.244 38.9939 203.588 38.9939 195.378C38.9939 187.167 44.6054 180.511 51.5276 180.511C58.4498 180.511 64.0614 187.167 64.0614 195.378Z" fill="#53556E"/>
<path d="M64.0614 241.63C64.0614 249.84 58.4498 256.496 51.5276 256.496C44.6054 256.496 38.9939 249.84 38.9939 241.63C38.9939 233.419 44.6054 226.763 51.5276 226.763C58.4498 226.763 64.0614 233.419 64.0614 241.63Z" fill="#53556E"/>
<path d="M64.0614 287.882C64.0614 296.092 58.4498 302.748 51.5276 302.748C44.6054 302.748 38.9939 296.092 38.9939 287.882C38.9939 279.671 44.6054 273.015 51.5276 273.015C58.4498 273.015 64.0614 279.671 64.0614 287.882Z" fill="#53556E"/>
<path d="M64.0614 334.133C64.0614 342.344 58.4498 349 51.5276 349C44.6054 349 38.9939 342.344 38.9939 334.133C38.9939 325.923 44.6054 319.267 51.5276 319.267C58.4498 319.267 64.0614 325.923 64.0614 334.133Z" fill="#53556E"/>
<path d="M103.055 -82.1333C103.055 -73.9227 97.4437 -67.2667 90.5215 -67.2667C83.5993 -67.2667 77.9877 -73.9227 77.9877 -82.1333C77.9877 -90.344 83.5993 -97 90.5215 -97C97.4437 -97 103.055 -90.344 103.055 -82.1333Z" fill="#53556E"/>
<path d="M103.055 -35.8815C103.055 -27.6708 97.4437 -21.0148 90.5215 -21.0148C83.5993 -21.0148 77.9877 -27.6708 77.9877 -35.8815C77.9877 -44.0921 83.5993 -50.7481 90.5215 -50.7481C97.4437 -50.7481 103.055 -44.0921 103.055 -35.8815Z" fill="#53556E"/>
<path d="M103.055 10.3704C103.055 18.581 97.4437 25.237 90.5215 25.237C83.5993 25.237 77.9877 18.581 77.9877 10.3704C77.9877 2.15974 83.5993 -4.49629 90.5215 -4.49629C97.4437 -4.49629 103.055 2.15974 103.055 10.3704Z" fill="#53556E"/>
<path d="M103.055 56.6222C103.055 64.8329 97.4437 71.4889 90.5215 71.4889C83.5993 71.4889 77.9877 64.8329 77.9877 56.6222C77.9877 48.4116 83.5993 41.7556 90.5215 41.7556C97.4437 41.7556 103.055 48.4116 103.055 56.6222Z" fill="#53556E"/>
<path d="M103.055 102.874C103.055 111.085 97.4437 117.741 90.5215 117.741C83.5993 117.741 77.9877 111.085 77.9877 102.874C77.9877 94.6635 83.5993 88.0074 90.5215 88.0074C97.4437 88.0074 103.055 94.6635 103.055 102.874Z" fill="#53556E"/>
<path d="M103.055 149.126C103.055 157.337 97.4437 163.993 90.5215 163.993C83.5993 163.993 77.9877 157.337 77.9877 149.126C77.9877 140.915 83.5993 134.259 90.5215 134.259C97.4437 134.259 103.055 140.915 103.055 149.126Z" fill="#53556E"/>
<path d="M103.055 195.378C103.055 203.588 97.4437 210.244 90.5215 210.244C83.5993 210.244 77.9877 203.588 77.9877 195.378C77.9877 187.167 83.5993 180.511 90.5215 180.511C97.4437 180.511 103.055 187.167 103.055 195.378Z" fill="#53556E"/>
<path d="M103.055 241.63C103.055 249.84 97.4437 256.496 90.5215 256.496C83.5993 256.496 77.9877 249.84 77.9877 241.63C77.9877 233.419 83.5993 226.763 90.5215 226.763C97.4437 226.763 103.055 233.419 103.055 241.63Z" fill="#53556E"/>
<path d="M103.055 287.882C103.055 296.092 97.4437 302.748 90.5215 302.748C83.5993 302.748 77.9877 296.092 77.9877 287.882C77.9877 279.671 83.5993 273.015 90.5215 273.015C97.4437 273.015 103.055 279.671 103.055 287.882Z" fill="#53556E"/>
<path d="M103.055 334.133C103.055 342.344 97.4437 349 90.5215 349C83.5993 349 77.9877 342.344 77.9877 334.133C77.9877 325.923 83.5993 319.267 90.5215 319.267C97.4437 319.267 103.055 325.923 103.055 334.133Z" fill="#53556E"/>
<path d="M142.049 -82.1333C142.049 -73.9227 136.438 -67.2667 129.515 -67.2667C122.593 -67.2667 116.982 -73.9227 116.982 -82.1333C116.982 -90.344 122.593 -97 129.515 -97C136.438 -97 142.049 -90.344 142.049 -82.1333Z" fill="#53556E"/>
<path d="M142.049 -35.8815C142.049 -27.6708 136.438 -21.0148 129.515 -21.0148C122.593 -21.0148 116.982 -27.6708 116.982 -35.8815C116.982 -44.0921 122.593 -50.7481 129.515 -50.7481C136.438 -50.7481 142.049 -44.0921 142.049 -35.8815Z" fill="#53556E"/>
<path d="M142.049 10.3704C142.049 18.581 136.438 25.237 129.515 25.237C122.593 25.237 116.982 18.581 116.982 10.3704C116.982 2.15974 122.593 -4.49629 129.515 -4.49629C136.438 -4.49629 142.049 2.15974 142.049 10.3704Z" fill="#53556E"/>
<path d="M142.049 56.6222C142.049 64.8329 136.438 71.4889 129.515 71.4889C122.593 71.4889 116.982 64.8329 116.982 56.6222C116.982 48.4116 122.593 41.7556 129.515 41.7556C136.438 41.7556 142.049 48.4116 142.049 56.6222Z" fill="#53556E"/>
<path d="M142.049 102.874C142.049 111.085 136.438 117.741 129.515 117.741C122.593 117.741 116.982 111.085 116.982 102.874C116.982 94.6635 122.593 88.0074 129.515 88.0074C136.438 88.0074 142.049 94.6635 142.049 102.874Z" fill="#53556E"/>
<path d="M142.049 149.126C142.049 157.337 136.438 163.993 129.515 163.993C122.593 163.993 116.982 157.337 116.982 149.126C116.982 140.915 122.593 134.259 129.515 134.259C136.438 134.259 142.049 140.915 142.049 149.126Z" fill="#53556E"/>
<path d="M142.049 195.378C142.049 203.588 136.438 210.244 129.515 210.244C122.593 210.244 116.982 203.588 116.982 195.378C116.982 187.167 122.593 180.511 129.515 180.511C136.438 180.511 142.049 187.167 142.049 195.378Z" fill="#53556E"/>
<path d="M142.049 241.63C142.049 249.84 136.438 256.496 129.515 256.496C122.593 256.496 116.982 249.84 116.982 241.63C116.982 233.419 122.593 226.763 129.515 226.763C136.438 226.763 142.049 233.419 142.049 241.63Z" fill="#53556E"/>
<path d="M142.049 287.882C142.049 296.092 136.438 302.748 129.515 302.748C122.593 302.748 116.982 296.092 116.982 287.882C116.982 279.671 122.593 273.015 129.515 273.015C136.438 273.015 142.049 279.671 142.049 287.882Z" fill="#53556E"/>
<path d="M142.049 334.133C142.049 342.344 136.438 349 129.515 349C122.593 349 116.982 342.344 116.982 334.133C116.982 325.923 122.593 319.267 129.515 319.267C136.438 319.267 142.049 325.923 142.049 334.133Z" fill="#53556E"/>
<path d="M181.043 -82.1333C181.043 -73.9227 175.431 -67.2667 168.509 -67.2667C161.587 -67.2667 155.975 -73.9227 155.975 -82.1333C155.975 -90.344 161.587 -97 168.509 -97C175.431 -97 181.043 -90.344 181.043 -82.1333Z" fill="#53556E"/>
<path d="M181.043 -35.8815C181.043 -27.6708 175.431 -21.0148 168.509 -21.0148C161.587 -21.0148 155.975 -27.6708 155.975 -35.8815C155.975 -44.0921 161.587 -50.7481 168.509 -50.7481C175.431 -50.7481 181.043 -44.0921 181.043 -35.8815Z" fill="#53556E"/>
<path d="M181.043 10.3704C181.043 18.581 175.431 25.237 168.509 25.237C161.587 25.237 155.975 18.581 155.975 10.3704C155.975 2.15974 161.587 -4.49629 168.509 -4.49629C175.431 -4.49629 181.043 2.15974 181.043 10.3704Z" fill="#53556E"/>
<path d="M181.043 56.6222C181.043 64.8329 175.431 71.4889 168.509 71.4889C161.587 71.4889 155.975 64.8329 155.975 56.6222C155.975 48.4116 161.587 41.7556 168.509 41.7556C175.431 41.7556 181.043 48.4116 181.043 56.6222Z" fill="#53556E"/>
<path d="M181.043 102.874C181.043 111.085 175.431 117.741 168.509 117.741C161.587 117.741 155.975 111.085 155.975 102.874C155.975 94.6635 161.587 88.0074 168.509 88.0074C175.431 88.0074 181.043 94.6635 181.043 102.874Z" fill="#53556E"/>
<path d="M181.043 149.126C181.043 157.337 175.431 163.993 168.509 163.993C161.587 163.993 155.975 157.337 155.975 149.126C155.975 140.915 161.587 134.259 168.509 134.259C175.431 134.259 181.043 140.915 181.043 149.126Z" fill="#53556E"/>
<path d="M181.043 195.378C181.043 203.588 175.431 210.244 168.509 210.244C161.587 210.244 155.975 203.588 155.975 195.378C155.975 187.167 161.587 180.511 168.509 180.511C175.431 180.511 181.043 187.167 181.043 195.378Z" fill="#53556E"/>
<path d="M181.043 241.63C181.043 249.84 175.431 256.496 168.509 256.496C161.587 256.496 155.975 249.84 155.975 241.63C155.975 233.419 161.587 226.763 168.509 226.763C175.431 226.763 181.043 233.419 181.043 241.63Z" fill="#53556E"/>
<path d="M181.043 287.882C181.043 296.092 175.431 302.748 168.509 302.748C161.587 302.748 155.975 296.092 155.975 287.882C155.975 279.671 161.587 273.015 168.509 273.015C175.431 273.015 181.043 279.671 181.043 287.882Z" fill="#53556E"/>
<path d="M181.043 334.133C181.043 342.344 175.431 349 168.509 349C161.587 349 155.975 342.344 155.975 334.133C155.975 325.923 161.587 319.267 168.509 319.267C175.431 319.267 181.043 325.923 181.043 334.133Z" fill="#53556E"/>
<path d="M220.037 -82.1333C220.037 -73.9227 214.425 -67.2667 207.503 -67.2667C200.581 -67.2667 194.969 -73.9227 194.969 -82.1333C194.969 -90.344 200.581 -97 207.503 -97C214.425 -97 220.037 -90.344 220.037 -82.1333Z" fill="#53556E"/>
<path d="M220.037 -35.8815C220.037 -27.6708 214.425 -21.0148 207.503 -21.0148C200.581 -21.0148 194.969 -27.6708 194.969 -35.8815C194.969 -44.0921 200.581 -50.7481 207.503 -50.7481C214.425 -50.7481 220.037 -44.0921 220.037 -35.8815Z" fill="#53556E"/>
<path d="M220.037 10.3704C220.037 18.581 214.425 25.237 207.503 25.237C200.581 25.237 194.969 18.581 194.969 10.3704C194.969 2.15974 200.581 -4.49629 207.503 -4.49629C214.425 -4.49629 220.037 2.15974 220.037 10.3704Z" fill="#53556E"/>
<path d="M220.037 56.6222C220.037 64.8329 214.425 71.4889 207.503 71.4889C200.581 71.4889 194.969 64.8329 194.969 56.6222C194.969 48.4116 200.581 41.7556 207.503 41.7556C214.425 41.7556 220.037 48.4116 220.037 56.6222Z" fill="#53556E"/>
<path d="M220.037 102.874C220.037 111.085 214.425 117.741 207.503 117.741C200.581 117.741 194.969 111.085 194.969 102.874C194.969 94.6635 200.581 88.0074 207.503 88.0074C214.425 88.0074 220.037 94.6635 220.037 102.874Z" fill="#53556E"/>
<path d="M220.037 149.126C220.037 157.337 214.425 163.993 207.503 163.993C200.581 163.993 194.969 157.337 194.969 149.126C194.969 140.915 200.581 134.259 207.503 134.259C214.425 134.259 220.037 140.915 220.037 149.126Z" fill="#53556E"/>
<path d="M220.037 195.378C220.037 203.588 214.425 210.244 207.503 210.244C200.581 210.244 194.969 203.588 194.969 195.378C194.969 187.167 200.581 180.511 207.503 180.511C214.425 180.511 220.037 187.167 220.037 195.378Z" fill="#53556E"/>
<path d="M220.037 241.63C220.037 249.84 214.425 256.496 207.503 256.496C200.581 256.496 194.969 249.84 194.969 241.63C194.969 233.419 200.581 226.763 207.503 226.763C214.425 226.763 220.037 233.419 220.037 241.63Z" fill="#53556E"/>
<path d="M220.037 287.882C220.037 296.092 214.425 302.748 207.503 302.748C200.581 302.748 194.969 296.092 194.969 287.882C194.969 279.671 200.581 273.015 207.503 273.015C214.425 273.015 220.037 279.671 220.037 287.882Z" fill="#53556E"/>
<path d="M220.037 334.133C220.037 342.344 214.425 349 207.503 349C200.581 349 194.969 342.344 194.969 334.133C194.969 325.923 200.581 319.267 207.503 319.267C214.425 319.267 220.037 325.923 220.037 334.133Z" fill="#53556E"/>
<path d="M259.031 -82.1333C259.031 -73.9227 253.419 -67.2667 246.497 -67.2667C239.575 -67.2667 233.963 -73.9227 233.963 -82.1333C233.963 -90.344 239.575 -97 246.497 -97C253.419 -97 259.031 -90.344 259.031 -82.1333Z" fill="#53556E"/>
<path d="M259.031 -35.8815C259.031 -27.6708 253.419 -21.0148 246.497 -21.0148C239.575 -21.0148 233.963 -27.6708 233.963 -35.8815C233.963 -44.0921 239.575 -50.7481 246.497 -50.7481C253.419 -50.7481 259.031 -44.0921 259.031 -35.8815Z" fill="#53556E"/>
<path d="M259.031 10.3704C259.031 18.581 253.419 25.237 246.497 25.237C239.575 25.237 233.963 18.581 233.963 10.3704C233.963 2.15974 239.575 -4.49629 246.497 -4.49629C253.419 -4.49629 259.031 2.15974 259.031 10.3704Z" fill="#53556E"/>
<path d="M259.031 56.6222C259.031 64.8329 253.419 71.4889 246.497 71.4889C239.575 71.4889 233.963 64.8329 233.963 56.6222C233.963 48.4116 239.575 41.7556 246.497 41.7556C253.419 41.7556 259.031 48.4116 259.031 56.6222Z" fill="#53556E"/>
<path d="M259.031 102.874C259.031 111.085 253.419 117.741 246.497 117.741C239.575 117.741 233.963 111.085 233.963 102.874C233.963 94.6635 239.575 88.0074 246.497 88.0074C253.419 88.0074 259.031 94.6635 259.031 102.874Z" fill="#53556E"/>
<path d="M259.031 149.126C259.031 157.337 253.419 163.993 246.497 163.993C239.575 163.993 233.963 157.337 233.963 149.126C233.963 140.915 239.575 134.259 246.497 134.259C253.419 134.259 259.031 140.915 259.031 149.126Z" fill="#53556E"/>
<path d="M259.031 195.378C259.031 203.588 253.419 210.244 246.497 210.244C239.575 210.244 233.963 203.588 233.963 195.378C233.963 187.167 239.575 180.511 246.497 180.511C253.419 180.511 259.031 187.167 259.031 195.378Z" fill="#53556E"/>
<path d="M259.031 241.63C259.031 249.84 253.419 256.496 246.497 256.496C239.575 256.496 233.963 249.84 233.963 241.63C233.963 233.419 239.575 226.763 246.497 226.763C253.419 226.763 259.031 233.419 259.031 241.63Z" fill="#53556E"/>
<path d="M259.031 287.882C259.031 296.092 253.419 302.748 246.497 302.748C239.575 302.748 233.963 296.092 233.963 287.882C233.963 279.671 239.575 273.015 246.497 273.015C253.419 273.015 259.031 279.671 259.031 287.882Z" fill="#53556E"/>
<path d="M259.031 334.133C259.031 342.344 253.419 349 246.497 349C239.575 349 233.963 342.344 233.963 334.133C233.963 325.923 239.575 319.267 246.497 319.267C253.419 319.267 259.031 325.923 259.031 334.133Z" fill="#53556E"/>
<path d="M298.025 -82.1333C298.025 -73.9227 292.413 -67.2667 285.491 -67.2667C278.569 -67.2667 272.957 -73.9227 272.957 -82.1333C272.957 -90.344 278.569 -97 285.491 -97C292.413 -97 298.025 -90.344 298.025 -82.1333Z" fill="#53556E"/>
<path d="M298.025 -35.8815C298.025 -27.6708 292.413 -21.0148 285.491 -21.0148C278.569 -21.0148 272.957 -27.6708 272.957 -35.8815C272.957 -44.0921 278.569 -50.7481 285.491 -50.7481C292.413 -50.7481 298.025 -44.0921 298.025 -35.8815Z" fill="#53556E"/>
<path d="M298.025 10.3704C298.025 18.581 292.413 25.237 285.491 25.237C278.569 25.237 272.957 18.581 272.957 10.3704C272.957 2.15974 278.569 -4.49629 285.491 -4.49629C292.413 -4.49629 298.025 2.15974 298.025 10.3704Z" fill="#53556E"/>
<path d="M298.025 56.6222C298.025 64.8329 292.413 71.4889 285.491 71.4889C278.569 71.4889 272.957 64.8329 272.957 56.6222C272.957 48.4116 278.569 41.7556 285.491 41.7556C292.413 41.7556 298.025 48.4116 298.025 56.6222Z" fill="#53556E"/>
<path d="M298.025 102.874C298.025 111.085 292.413 117.741 285.491 117.741C278.569 117.741 272.957 111.085 272.957 102.874C272.957 94.6635 278.569 88.0074 285.491 88.0074C292.413 88.0074 298.025 94.6635 298.025 102.874Z" fill="#53556E"/>
<path d="M298.025 149.126C298.025 157.337 292.413 163.993 285.491 163.993C278.569 163.993 272.957 157.337 272.957 149.126C272.957 140.915 278.569 134.259 285.491 134.259C292.413 134.259 298.025 140.915 298.025 149.126Z" fill="#53556E"/>
<path d="M298.025 195.378C298.025 203.588 292.413 210.244 285.491 210.244C278.569 210.244 272.957 203.588 272.957 195.378C272.957 187.167 278.569 180.511 285.491 180.511C292.413 180.511 298.025 187.167 298.025 195.378Z" fill="#53556E"/>
<path d="M298.025 241.63C298.025 249.84 292.413 256.496 285.491 256.496C278.569 256.496 272.957 249.84 272.957 241.63C272.957 233.419 278.569 226.763 285.491 226.763C292.413 226.763 298.025 233.419 298.025 241.63Z" fill="#53556E"/>
<path d="M298.025 287.882C298.025 296.092 292.413 302.748 285.491 302.748C278.569 302.748 272.957 296.092 272.957 287.882C272.957 279.671 278.569 273.015 285.491 273.015C292.413 273.015 298.025 279.671 298.025 287.882Z" fill="#53556E"/>
<path d="M298.025 334.133C298.025 342.344 292.413 349 285.491 349C278.569 349 272.957 342.344 272.957 334.133C272.957 325.923 278.569 319.267 285.491 319.267C292.413 319.267 298.025 325.923 298.025 334.133Z" fill="#53556E"/>
<path d="M337.018 -82.1333C337.018 -73.9227 331.407 -67.2667 324.485 -67.2667C317.562 -67.2667 311.951 -73.9227 311.951 -82.1333C311.951 -90.344 317.562 -97 324.485 -97C331.407 -97 337.018 -90.344 337.018 -82.1333Z" fill="#53556E"/>
<path d="M337.018 -35.8815C337.018 -27.6708 331.407 -21.0148 324.485 -21.0148C317.562 -21.0148 311.951 -27.6708 311.951 -35.8815C311.951 -44.0921 317.562 -50.7481 324.485 -50.7481C331.407 -50.7481 337.018 -44.0921 337.018 -35.8815Z" fill="#53556E"/>
<path d="M337.018 10.3704C337.018 18.581 331.407 25.237 324.485 25.237C317.562 25.237 311.951 18.581 311.951 10.3704C311.951 2.15974 317.562 -4.49629 324.485 -4.49629C331.407 -4.49629 337.018 2.15974 337.018 10.3704Z" fill="#53556E"/>
<path d="M337.018 56.6222C337.018 64.8329 331.407 71.4889 324.485 71.4889C317.562 71.4889 311.951 64.8329 311.951 56.6222C311.951 48.4116 317.562 41.7556 324.485 41.7556C331.407 41.7556 337.018 48.4116 337.018 56.6222Z" fill="#53556E"/>
<path d="M337.018 102.874C337.018 111.085 331.407 117.741 324.485 117.741C317.562 117.741 311.951 111.085 311.951 102.874C311.951 94.6635 317.562 88.0074 324.485 88.0074C331.407 88.0074 337.018 94.6635 337.018 102.874Z" fill="#53556E"/>
<path d="M337.018 149.126C337.018 157.337 331.407 163.993 324.485 163.993C317.562 163.993 311.951 157.337 311.951 149.126C311.951 140.915 317.562 134.259 324.485 134.259C331.407 134.259 337.018 140.915 337.018 149.126Z" fill="#53556E"/>
<path d="M337.018 195.378C337.018 203.588 331.407 210.244 324.485 210.244C317.562 210.244 311.951 203.588 311.951 195.378C311.951 187.167 317.562 180.511 324.485 180.511C331.407 180.511 337.018 187.167 337.018 195.378Z" fill="#53556E"/>
<path d="M337.018 241.63C337.018 249.84 331.407 256.496 324.485 256.496C317.562 256.496 311.951 249.84 311.951 241.63C311.951 233.419 317.562 226.763 324.485 226.763C331.407 226.763 337.018 233.419 337.018 241.63Z" fill="#53556E"/>
<path d="M337.018 287.882C337.018 296.092 331.407 302.748 324.485 302.748C317.562 302.748 311.951 296.092 311.951 287.882C311.951 279.671 317.562 273.015 324.485 273.015C331.407 273.015 337.018 279.671 337.018 287.882Z" fill="#53556E"/>
<path d="M337.018 334.133C337.018 342.344 331.407 349 324.485 349C317.562 349 311.951 342.344 311.951 334.133C311.951 325.923 317.562 319.267 324.485 319.267C331.407 319.267 337.018 325.923 337.018 334.133Z" fill="#53556E"/>
<path d="M376.012 -82.1333C376.012 -73.9227 370.401 -67.2667 363.479 -67.2667C356.556 -67.2667 350.945 -73.9227 350.945 -82.1333C350.945 -90.344 356.556 -97 363.479 -97C370.401 -97 376.012 -90.344 376.012 -82.1333Z" fill="#53556E"/>
<path d="M376.012 -35.8815C376.012 -27.6708 370.401 -21.0148 363.479 -21.0148C356.556 -21.0148 350.945 -27.6708 350.945 -35.8815C350.945 -44.0921 356.556 -50.7481 363.479 -50.7481C370.401 -50.7481 376.012 -44.0921 376.012 -35.8815Z" fill="#53556E"/>
<path d="M376.012 10.3704C376.012 18.581 370.401 25.237 363.479 25.237C356.556 25.237 350.945 18.581 350.945 10.3704C350.945 2.15974 356.556 -4.49629 363.479 -4.49629C370.401 -4.49629 376.012 2.15974 376.012 10.3704Z" fill="#53556E"/>
<path d="M376.012 56.6222C376.012 64.8329 370.401 71.4889 363.479 71.4889C356.556 71.4889 350.945 64.8329 350.945 56.6222C350.945 48.4116 356.556 41.7556 363.479 41.7556C370.401 41.7556 376.012 48.4116 376.012 56.6222Z" fill="#53556E"/>
<path d="M376.012 102.874C376.012 111.085 370.401 117.741 363.479 117.741C356.556 117.741 350.945 111.085 350.945 102.874C350.945 94.6635 356.556 88.0074 363.479 88.0074C370.401 88.0074 376.012 94.6635 376.012 102.874Z" fill="#53556E"/>
<path d="M376.012 149.126C376.012 157.337 370.401 163.993 363.479 163.993C356.556 163.993 350.945 157.337 350.945 149.126C350.945 140.915 356.556 134.259 363.479 134.259C370.401 134.259 376.012 140.915 376.012 149.126Z" fill="#53556E"/>
<path d="M376.012 195.378C376.012 203.588 370.401 210.244 363.479 210.244C356.556 210.244 350.945 203.588 350.945 195.378C350.945 187.167 356.556 180.511 363.479 180.511C370.401 180.511 376.012 187.167 376.012 195.378Z" fill="#53556E"/>
<path d="M376.012 241.63C376.012 249.84 370.401 256.496 363.479 256.496C356.556 256.496 350.945 249.84 350.945 241.63C350.945 233.419 356.556 226.763 363.479 226.763C370.401 226.763 376.012 233.419 376.012 241.63Z" fill="#53556E"/>
<path d="M376.012 287.882C376.012 296.092 370.401 302.748 363.479 302.748C356.556 302.748 350.945 296.092 350.945 287.882C350.945 279.671 356.556 273.015 363.479 273.015C370.401 273.015 376.012 279.671 376.012 287.882Z" fill="#53556E"/>
<path d="M376.012 334.133C376.012 342.344 370.401 349 363.479 349C356.556 349 350.945 342.344 350.945 334.133C350.945 325.923 356.556 319.267 363.479 319.267C370.401 319.267 376.012 325.923 376.012 334.133Z" fill="#53556E"/>
<path d="M415.006 -82.1333C415.006 -73.9227 409.395 -67.2667 402.472 -67.2667C395.55 -67.2667 389.939 -73.9227 389.939 -82.1333C389.939 -90.344 395.55 -97 402.472 -97C409.395 -97 415.006 -90.344 415.006 -82.1333Z" fill="#53556E"/>
<path d="M415.006 -35.8815C415.006 -27.6708 409.395 -21.0148 402.472 -21.0148C395.55 -21.0148 389.939 -27.6708 389.939 -35.8815C389.939 -44.0921 395.55 -50.7481 402.472 -50.7481C409.395 -50.7481 415.006 -44.0921 415.006 -35.8815Z" fill="#53556E"/>
<path d="M415.006 10.3704C415.006 18.581 409.395 25.237 402.472 25.237C395.55 25.237 389.939 18.581 389.939 10.3704C389.939 2.15974 395.55 -4.49629 402.472 -4.49629C409.395 -4.49629 415.006 2.15974 415.006 10.3704Z" fill="#53556E"/>
<path d="M415.006 56.6222C415.006 64.8329 409.395 71.4889 402.472 71.4889C395.55 71.4889 389.939 64.8329 389.939 56.6222C389.939 48.4116 395.55 41.7556 402.472 41.7556C409.395 41.7556 415.006 48.4116 415.006 56.6222Z" fill="#53556E"/>
<path d="M415.006 102.874C415.006 111.085 409.395 117.741 402.472 117.741C395.55 117.741 389.939 111.085 389.939 102.874C389.939 94.6635 395.55 88.0074 402.472 88.0074C409.395 88.0074 415.006 94.6635 415.006 102.874Z" fill="#53556E"/>
<path d="M415.006 149.126C415.006 157.337 409.395 163.993 402.472 163.993C395.55 163.993 389.939 157.337 389.939 149.126C389.939 140.915 395.55 134.259 402.472 134.259C409.395 134.259 415.006 140.915 415.006 149.126Z" fill="#53556E"/>
<path d="M415.006 195.378C415.006 203.588 409.395 210.244 402.472 210.244C395.55 210.244 389.939 203.588 389.939 195.378C389.939 187.167 395.55 180.511 402.472 180.511C409.395 180.511 415.006 187.167 415.006 195.378Z" fill="#53556E"/>
<path d="M415.006 241.63C415.006 249.84 409.395 256.496 402.472 256.496C395.55 256.496 389.939 249.84 389.939 241.63C389.939 233.419 395.55 226.763 402.472 226.763C409.395 226.763 415.006 233.419 415.006 241.63Z" fill="#53556E"/>
<path d="M415.006 287.882C415.006 296.092 409.395 302.748 402.472 302.748C395.55 302.748 389.939 296.092 389.939 287.882C389.939 279.671 395.55 273.015 402.472 273.015C409.395 273.015 415.006 279.671 415.006 287.882Z" fill="#53556E"/>
<path d="M415.006 334.133C415.006 342.344 409.395 349 402.472 349C395.55 349 389.939 342.344 389.939 334.133C389.939 325.923 395.55 319.267 402.472 319.267C409.395 319.267 415.006 325.923 415.006 334.133Z" fill="#53556E"/>
<path d="M454 -82.1333C454 -73.9227 448.388 -67.2667 441.466 -67.2667C434.544 -67.2667 428.933 -73.9227 428.933 -82.1333C428.933 -90.344 434.544 -97 441.466 -97C448.388 -97 454 -90.344 454 -82.1333Z" fill="#53556E"/>
<path d="M454 -35.8815C454 -27.6708 448.388 -21.0148 441.466 -21.0148C434.544 -21.0148 428.933 -27.6708 428.933 -35.8815C428.933 -44.0921 434.544 -50.7481 441.466 -50.7481C448.388 -50.7481 454 -44.0921 454 -35.8815Z" fill="#53556E"/>
<path d="M454 10.3704C454 18.581 448.388 25.237 441.466 25.237C434.544 25.237 428.933 18.581 428.933 10.3704C428.933 2.15974 434.544 -4.49629 441.466 -4.49629C448.388 -4.49629 454 2.15974 454 10.3704Z" fill="#53556E"/>
<path d="M454 56.6222C454 64.8329 448.388 71.4889 441.466 71.4889C434.544 71.4889 428.933 64.8329 428.933 56.6222C428.933 48.4116 434.544 41.7556 441.466 41.7556C448.388 41.7556 454 48.4116 454 56.6222Z" fill="#53556E"/>
<path d="M454 102.874C454 111.085 448.388 117.741 441.466 117.741C434.544 117.741 428.933 111.085 428.933 102.874C428.933 94.6635 434.544 88.0074 441.466 88.0074C448.388 88.0074 454 94.6635 454 102.874Z" fill="#53556E"/>
<path d="M454 149.126C454 157.337 448.388 163.993 441.466 163.993C434.544 163.993 428.933 157.337 428.933 149.126C428.933 140.915 434.544 134.259 441.466 134.259C448.388 134.259 454 140.915 454 149.126Z" fill="#53556E"/>
<path d="M454 195.378C454 203.588 448.388 210.244 441.466 210.244C434.544 210.244 428.933 203.588 428.933 195.378C428.933 187.167 434.544 180.511 441.466 180.511C448.388 180.511 454 187.167 454 195.378Z" fill="#53556E"/>
<path d="M454 241.63C454 249.84 448.388 256.496 441.466 256.496C434.544 256.496 428.933 249.84 428.933 241.63C428.933 233.419 434.544 226.763 441.466 226.763C448.388 226.763 454 233.419 454 241.63Z" fill="#53556E"/>
<path d="M454 287.882C454 296.092 448.388 302.748 441.466 302.748C434.544 302.748 428.933 296.092 428.933 287.882C428.933 279.671 434.544 273.015 441.466 273.015C448.388 273.015 454 279.671 454 287.882Z" fill="#53556E"/>
<path d="M454 334.133C454 342.344 448.388 349 441.466 349C434.544 349 428.933 342.344 428.933 334.133C428.933 325.923 434.544 319.267 441.466 319.267C448.388 319.267 454 325.923 454 334.133Z" fill="#53556E"/>
</g>
</svg>
